<mxfile host="65bd71144e">
    <diagram id="bhoT0uzznuUVsqog2JMn" name="Page-1">
        <mxGraphModel dx="990" dy="566" grid="1" gridSize="10" guides="1" tooltips="1" connect="1" arrows="1" fold="1" page="1" pageScale="1" pageWidth="827" pageHeight="1169" math="0" shadow="0">
            <root>
                <mxCell id="0"/>
                <mxCell id="1" parent="0"/>
                <mxCell id="2" value="users" style="ellipse;shape=cloud;whiteSpace=wrap;html=1;" vertex="1" parent="1">
                    <mxGeometry x="90" y="180" width="120" height="80" as="geometry"/>
                </mxCell>
                <mxCell id="3" value="Actor" style="shape=umlActor;verticalLabelPosition=bottom;verticalAlign=top;html=1;outlineConnect=0;" vertex="1" parent="1">
                    <mxGeometry x="400" y="260" width="30" height="60" as="geometry"/>
                </mxCell>
                <mxCell id="4" value="comments" style="ellipse;shape=cloud;whiteSpace=wrap;html=1;" vertex="1" parent="1">
                    <mxGeometry x="250" y="90" width="120" height="80" as="geometry"/>
                </mxCell>
                <mxCell id="5" value="photos" style="ellipse;shape=cloud;whiteSpace=wrap;html=1;" vertex="1" parent="1">
                    <mxGeometry x="450" y="120" width="120" height="80" as="geometry"/>
                </mxCell>
                <mxCell id="rN4mgwq8KAr8GuV9qTZP-5" value="frames" style="ellipse;shape=cloud;whiteSpace=wrap;html=1;" vertex="1" parent="1">
                    <mxGeometry x="570" y="200" width="120" height="80" as="geometry"/>
                </mxCell>
            </root>
        </mxGraphModel>
    </diagram>
    <diagram id="CGyrJQFZhokAmrWVmQ2e" name="ER">
        <mxGraphModel dx="990" dy="566" grid="1" gridSize="10" guides="1" tooltips="1" connect="1" arrows="1" fold="1" page="1" pageScale="1" pageWidth="827" pageHeight="1169" math="0" shadow="0">
            <root>
                <mxCell id="6vAfJPUwhoTCvthWQYNs-0"/>
                <mxCell id="6vAfJPUwhoTCvthWQYNs-1" parent="6vAfJPUwhoTCvthWQYNs-0"/>
                <mxCell id="IQvk6hiVLgYLrdVG8DkQ-9" style="edgeStyle=none;html=1;exitX=1;exitY=0.5;exitDx=0;exitDy=0;entryX=0;entryY=0.5;entryDx=0;entryDy=0;endArrow=none;endFill=0;" edge="1" parent="6vAfJPUwhoTCvthWQYNs-1" source="4FT97niEMeIXAbWIIyVj-1" target="IQvk6hiVLgYLrdVG8DkQ-5">
                    <mxGeometry relative="1" as="geometry"/>
                </mxCell>
                <mxCell id="IQvk6hiVLgYLrdVG8DkQ-20" style="edgeStyle=none;html=1;exitX=0.5;exitY=1;exitDx=0;exitDy=0;endArrow=none;endFill=0;" edge="1" parent="6vAfJPUwhoTCvthWQYNs-1" source="4FT97niEMeIXAbWIIyVj-1" target="IQvk6hiVLgYLrdVG8DkQ-19">
                    <mxGeometry relative="1" as="geometry"/>
                </mxCell>
                <mxCell id="4FT97niEMeIXAbWIIyVj-1" value="profile" style="rounded=1;whiteSpace=wrap;html=1;" vertex="1" parent="6vAfJPUwhoTCvthWQYNs-1">
                    <mxGeometry x="150" y="130" width="120" height="60" as="geometry"/>
                </mxCell>
                <mxCell id="4FT97niEMeIXAbWIIyVj-2" value="photos" style="rounded=1;whiteSpace=wrap;html=1;" vertex="1" parent="6vAfJPUwhoTCvthWQYNs-1">
                    <mxGeometry x="490" y="370" width="120" height="60" as="geometry"/>
                </mxCell>
                <mxCell id="4FT97niEMeIXAbWIIyVj-3" value="comment" style="rounded=1;whiteSpace=wrap;html=1;" vertex="1" parent="6vAfJPUwhoTCvthWQYNs-1">
                    <mxGeometry x="500" y="130" width="120" height="60" as="geometry"/>
                </mxCell>
                <mxCell id="JRzBo4cDENIiWSDkBh60-9" style="edgeStyle=none;html=1;exitX=0.5;exitY=1;exitDx=0;exitDy=0;entryX=0;entryY=0.25;entryDx=0;entryDy=0;endArrow=none;endFill=0;" edge="1" parent="6vAfJPUwhoTCvthWQYNs-1" source="IQvk6hiVLgYLrdVG8DkQ-0" target="4FT97niEMeIXAbWIIyVj-1">
                    <mxGeometry relative="1" as="geometry"/>
                </mxCell>
                <mxCell id="IQvk6hiVLgYLrdVG8DkQ-0" value="nickname" style="ellipse;whiteSpace=wrap;html=1;" vertex="1" parent="6vAfJPUwhoTCvthWQYNs-1">
                    <mxGeometry x="70" y="80" width="80" height="40" as="geometry"/>
                </mxCell>
                <mxCell id="JRzBo4cDENIiWSDkBh60-11" style="edgeStyle=none;html=1;exitX=0.5;exitY=1;exitDx=0;exitDy=0;entryX=0.647;entryY=-0.04;entryDx=0;entryDy=0;entryPerimeter=0;endArrow=none;endFill=0;" edge="1" parent="6vAfJPUwhoTCvthWQYNs-1" source="IQvk6hiVLgYLrdVG8DkQ-1" target="4FT97niEMeIXAbWIIyVj-1">
                    <mxGeometry relative="1" as="geometry"/>
                </mxCell>
                <mxCell id="IQvk6hiVLgYLrdVG8DkQ-1" value="password" style="ellipse;whiteSpace=wrap;html=1;" vertex="1" parent="6vAfJPUwhoTCvthWQYNs-1">
                    <mxGeometry x="200" y="70" width="70" height="40" as="geometry"/>
                </mxCell>
                <mxCell id="JRzBo4cDENIiWSDkBh60-10" style="edgeStyle=none;html=1;exitX=0.5;exitY=0;exitDx=0;exitDy=0;entryX=0;entryY=0.75;entryDx=0;entryDy=0;endArrow=none;endFill=0;" edge="1" parent="6vAfJPUwhoTCvthWQYNs-1" source="IQvk6hiVLgYLrdVG8DkQ-4" target="4FT97niEMeIXAbWIIyVj-1">
                    <mxGeometry relative="1" as="geometry"/>
                </mxCell>
                <mxCell id="IQvk6hiVLgYLrdVG8DkQ-4" value="fk_user_id" style="ellipse;whiteSpace=wrap;html=1;" vertex="1" parent="6vAfJPUwhoTCvthWQYNs-1">
                    <mxGeometry x="80" y="210" width="70" height="40" as="geometry"/>
                </mxCell>
                <mxCell id="IQvk6hiVLgYLrdVG8DkQ-15" style="edgeStyle=none;html=1;exitX=1;exitY=0.5;exitDx=0;exitDy=0;entryX=0;entryY=0.5;entryDx=0;entryDy=0;endArrow=none;endFill=0;" edge="1" parent="6vAfJPUwhoTCvthWQYNs-1" source="IQvk6hiVLgYLrdVG8DkQ-5" target="4FT97niEMeIXAbWIIyVj-3">
                    <mxGeometry relative="1" as="geometry"/>
                </mxCell>
                <mxCell id="IQvk6hiVLgYLrdVG8DkQ-5" value="posts" style="rhombus;whiteSpace=wrap;html=1;" vertex="1" parent="6vAfJPUwhoTCvthWQYNs-1">
                    <mxGeometry x="360" y="130" width="54" height="60" as="geometry"/>
                </mxCell>
                <mxCell id="IQvk6hiVLgYLrdVG8DkQ-16" style="edgeStyle=none;html=1;exitX=0.5;exitY=1;exitDx=0;exitDy=0;entryX=0.083;entryY=-0.053;entryDx=0;entryDy=0;entryPerimeter=0;endArrow=none;endFill=0;" edge="1" parent="6vAfJPUwhoTCvthWQYNs-1" source="IQvk6hiVLgYLrdVG8DkQ-6" target="4FT97niEMeIXAbWIIyVj-3">
                    <mxGeometry relative="1" as="geometry"/>
                </mxCell>
                <mxCell id="IQvk6hiVLgYLrdVG8DkQ-6" value="comment_id" style="ellipse;whiteSpace=wrap;html=1;" vertex="1" parent="6vAfJPUwhoTCvthWQYNs-1">
                    <mxGeometry x="460" y="60" width="70" height="40" as="geometry"/>
                </mxCell>
                <mxCell id="IQvk6hiVLgYLrdVG8DkQ-17" style="edgeStyle=none;html=1;exitX=0.5;exitY=1;exitDx=0;exitDy=0;entryX=0.883;entryY=-0.027;entryDx=0;entryDy=0;entryPerimeter=0;endArrow=none;endFill=0;" edge="1" parent="6vAfJPUwhoTCvthWQYNs-1" source="IQvk6hiVLgYLrdVG8DkQ-7" target="4FT97niEMeIXAbWIIyVj-3">
                    <mxGeometry relative="1" as="geometry"/>
                </mxCell>
                <mxCell id="IQvk6hiVLgYLrdVG8DkQ-7" value="text" style="ellipse;whiteSpace=wrap;html=1;" vertex="1" parent="6vAfJPUwhoTCvthWQYNs-1">
                    <mxGeometry x="580" y="60" width="70" height="40" as="geometry"/>
                </mxCell>
                <mxCell id="IQvk6hiVLgYLrdVG8DkQ-18" style="edgeStyle=none;html=1;exitX=0;exitY=0.5;exitDx=0;exitDy=0;entryX=1;entryY=0.25;entryDx=0;entryDy=0;endArrow=none;endFill=0;" edge="1" parent="6vAfJPUwhoTCvthWQYNs-1" source="IQvk6hiVLgYLrdVG8DkQ-8" target="4FT97niEMeIXAbWIIyVj-3">
                    <mxGeometry relative="1" as="geometry"/>
                </mxCell>
                <mxCell id="IQvk6hiVLgYLrdVG8DkQ-8" value="publication_date" style="ellipse;whiteSpace=wrap;html=1;" vertex="1" parent="6vAfJPUwhoTCvthWQYNs-1">
                    <mxGeometry x="670" y="110" width="100" height="50" as="geometry"/>
                </mxCell>
                <mxCell id="JRzBo4cDENIiWSDkBh60-20" style="edgeStyle=none;html=1;exitX=0.5;exitY=1;exitDx=0;exitDy=0;entryX=0.5;entryY=0;entryDx=0;entryDy=0;endArrow=none;endFill=0;" edge="1" parent="6vAfJPUwhoTCvthWQYNs-1" source="IQvk6hiVLgYLrdVG8DkQ-19" target="JRzBo4cDENIiWSDkBh60-14">
                    <mxGeometry relative="1" as="geometry"/>
                </mxCell>
                <mxCell id="IQvk6hiVLgYLrdVG8DkQ-19" value="has" style="rhombus;whiteSpace=wrap;html=1;" vertex="1" parent="6vAfJPUwhoTCvthWQYNs-1">
                    <mxGeometry x="180" y="250" width="60" height="60" as="geometry"/>
                </mxCell>
                <mxCell id="JRzBo4cDENIiWSDkBh60-12" style="edgeStyle=none;html=1;exitX=1;exitY=0.5;exitDx=0;exitDy=0;entryX=0.32;entryY=1.013;entryDx=0;entryDy=0;entryPerimeter=0;endArrow=none;endFill=0;" edge="1" parent="6vAfJPUwhoTCvthWQYNs-1" source="IQvk6hiVLgYLrdVG8DkQ-22" target="4FT97niEMeIXAbWIIyVj-2">
                    <mxGeometry relative="1" as="geometry"/>
                </mxCell>
                <mxCell id="IQvk6hiVLgYLrdVG8DkQ-22" value="photo_id" style="ellipse;whiteSpace=wrap;html=1;" vertex="1" parent="6vAfJPUwhoTCvthWQYNs-1">
                    <mxGeometry x="410" y="440" width="70" height="40" as="geometry"/>
                </mxCell>
                <mxCell id="IQvk6hiVLgYLrdVG8DkQ-30" style="edgeStyle=none;html=1;exitX=0;exitY=1;exitDx=0;exitDy=0;entryX=0.9;entryY=-0.02;entryDx=0;entryDy=0;entryPerimeter=0;endArrow=none;endFill=0;" edge="1" parent="6vAfJPUwhoTCvthWQYNs-1" source="IQvk6hiVLgYLrdVG8DkQ-23" target="4FT97niEMeIXAbWIIyVj-2">
                    <mxGeometry relative="1" as="geometry"/>
                </mxCell>
                <mxCell id="IQvk6hiVLgYLrdVG8DkQ-23" value="file_name" style="ellipse;whiteSpace=wrap;html=1;" vertex="1" parent="6vAfJPUwhoTCvthWQYNs-1">
                    <mxGeometry x="630" y="300" width="70" height="40" as="geometry"/>
                </mxCell>
                <mxCell id="IQvk6hiVLgYLrdVG8DkQ-29" style="edgeStyle=none;html=1;exitX=1;exitY=1;exitDx=0;exitDy=0;entryX=0.16;entryY=0.007;entryDx=0;entryDy=0;entryPerimeter=0;endArrow=none;endFill=0;" edge="1" parent="6vAfJPUwhoTCvthWQYNs-1" source="IQvk6hiVLgYLrdVG8DkQ-24" target="4FT97niEMeIXAbWIIyVj-2">
                    <mxGeometry relative="1" as="geometry"/>
                </mxCell>
                <mxCell id="IQvk6hiVLgYLrdVG8DkQ-24" value="description" style="ellipse;whiteSpace=wrap;html=1;" vertex="1" parent="6vAfJPUwhoTCvthWQYNs-1">
                    <mxGeometry x="410" y="300" width="70" height="40" as="geometry"/>
                </mxCell>
                <mxCell id="JRzBo4cDENIiWSDkBh60-13" style="edgeStyle=none;html=1;exitX=0;exitY=0;exitDx=0;exitDy=0;entryX=0.75;entryY=1;entryDx=0;entryDy=0;endArrow=none;endFill=0;" edge="1" parent="6vAfJPUwhoTCvthWQYNs-1" source="IQvk6hiVLgYLrdVG8DkQ-26" target="4FT97niEMeIXAbWIIyVj-2">
                    <mxGeometry relative="1" as="geometry"/>
                </mxCell>
                <mxCell id="IQvk6hiVLgYLrdVG8DkQ-26" value="fk_user_id" style="ellipse;whiteSpace=wrap;html=1;" vertex="1" parent="6vAfJPUwhoTCvthWQYNs-1">
                    <mxGeometry x="620" y="450" width="70" height="40" as="geometry"/>
                </mxCell>
                <mxCell id="JRzBo4cDENIiWSDkBh60-8" style="edgeStyle=none;html=1;exitX=0.5;exitY=1;exitDx=0;exitDy=0;entryX=0;entryY=0;entryDx=0;entryDy=0;endArrow=none;endFill=0;" edge="1" parent="6vAfJPUwhoTCvthWQYNs-1" source="JRzBo4cDENIiWSDkBh60-0" target="IQvk6hiVLgYLrdVG8DkQ-5">
                    <mxGeometry relative="1" as="geometry"/>
                </mxCell>
                <mxCell id="JRzBo4cDENIiWSDkBh60-0" value="post_id" style="ellipse;whiteSpace=wrap;html=1;" vertex="1" parent="6vAfJPUwhoTCvthWQYNs-1">
                    <mxGeometry x="320" y="80" width="60" height="40" as="geometry"/>
                </mxCell>
                <mxCell id="JRzBo4cDENIiWSDkBh60-7" style="edgeStyle=none;html=1;exitX=0.5;exitY=1;exitDx=0;exitDy=0;entryX=1;entryY=0;entryDx=0;entryDy=0;endArrow=none;endFill=0;" edge="1" parent="6vAfJPUwhoTCvthWQYNs-1" source="JRzBo4cDENIiWSDkBh60-1" target="IQvk6hiVLgYLrdVG8DkQ-5">
                    <mxGeometry relative="1" as="geometry"/>
                </mxCell>
                <mxCell id="JRzBo4cDENIiWSDkBh60-1" value="fk_iser_id" style="ellipse;whiteSpace=wrap;html=1;" vertex="1" parent="6vAfJPUwhoTCvthWQYNs-1">
                    <mxGeometry x="390" y="80" width="60" height="40" as="geometry"/>
                </mxCell>
                <mxCell id="JRzBo4cDENIiWSDkBh60-5" style="edgeStyle=none;html=1;exitX=0.5;exitY=0;exitDx=0;exitDy=0;entryX=0;entryY=1;entryDx=0;entryDy=0;endArrow=none;endFill=0;" edge="1" parent="6vAfJPUwhoTCvthWQYNs-1" source="JRzBo4cDENIiWSDkBh60-2" target="IQvk6hiVLgYLrdVG8DkQ-5">
                    <mxGeometry relative="1" as="geometry"/>
                </mxCell>
                <mxCell id="JRzBo4cDENIiWSDkBh60-2" value="timestamp" style="ellipse;whiteSpace=wrap;html=1;" vertex="1" parent="6vAfJPUwhoTCvthWQYNs-1">
                    <mxGeometry x="320" y="200" width="60" height="40" as="geometry"/>
                </mxCell>
                <mxCell id="JRzBo4cDENIiWSDkBh60-6" style="edgeStyle=none;html=1;exitX=0.5;exitY=0;exitDx=0;exitDy=0;entryX=1;entryY=1;entryDx=0;entryDy=0;endArrow=none;endFill=0;" edge="1" parent="6vAfJPUwhoTCvthWQYNs-1" source="JRzBo4cDENIiWSDkBh60-3" target="IQvk6hiVLgYLrdVG8DkQ-5">
                    <mxGeometry relative="1" as="geometry"/>
                </mxCell>
                <mxCell id="JRzBo4cDENIiWSDkBh60-3" value="fk_comment_id" style="ellipse;whiteSpace=wrap;html=1;" vertex="1" parent="6vAfJPUwhoTCvthWQYNs-1">
                    <mxGeometry x="400" y="190" width="90" height="40" as="geometry"/>
                </mxCell>
                <mxCell id="JRzBo4cDENIiWSDkBh60-22" style="edgeStyle=none;html=1;exitX=1;exitY=0.5;exitDx=0;exitDy=0;endArrow=none;endFill=0;" edge="1" parent="6vAfJPUwhoTCvthWQYNs-1" source="JRzBo4cDENIiWSDkBh60-14" target="JRzBo4cDENIiWSDkBh60-21">
                    <mxGeometry relative="1" as="geometry"/>
                </mxCell>
                <mxCell id="JRzBo4cDENIiWSDkBh60-14" value="user" style="rounded=1;whiteSpace=wrap;html=1;" vertex="1" parent="6vAfJPUwhoTCvthWQYNs-1">
                    <mxGeometry x="150" y="370" width="120" height="60" as="geometry"/>
                </mxCell>
                <mxCell id="JRzBo4cDENIiWSDkBh60-25" style="edgeStyle=none;html=1;exitX=1;exitY=0.5;exitDx=0;exitDy=0;entryX=0.25;entryY=0;entryDx=0;entryDy=0;endArrow=none;endFill=0;" edge="1" parent="6vAfJPUwhoTCvthWQYNs-1" source="JRzBo4cDENIiWSDkBh60-15" target="JRzBo4cDENIiWSDkBh60-14">
                    <mxGeometry relative="1" as="geometry"/>
                </mxCell>
                <mxCell id="JRzBo4cDENIiWSDkBh60-15" value="user_id" style="ellipse;whiteSpace=wrap;html=1;" vertex="1" parent="6vAfJPUwhoTCvthWQYNs-1">
                    <mxGeometry x="70" y="330" width="70" height="40" as="geometry"/>
                </mxCell>
                <mxCell id="JRzBo4cDENIiWSDkBh60-26" style="edgeStyle=none;html=1;exitX=0.5;exitY=0;exitDx=0;exitDy=0;entryX=0.25;entryY=1;entryDx=0;entryDy=0;endArrow=none;endFill=0;" edge="1" parent="6vAfJPUwhoTCvthWQYNs-1" source="JRzBo4cDENIiWSDkBh60-16" target="JRzBo4cDENIiWSDkBh60-14">
                    <mxGeometry relative="1" as="geometry"/>
                </mxCell>
                <mxCell id="JRzBo4cDENIiWSDkBh60-16" value="email_address" style="ellipse;whiteSpace=wrap;html=1;" vertex="1" parent="6vAfJPUwhoTCvthWQYNs-1">
                    <mxGeometry x="62.5" y="450" width="85" height="40" as="geometry"/>
                </mxCell>
                <mxCell id="JRzBo4cDENIiWSDkBh60-24" style="edgeStyle=none;html=1;exitX=0;exitY=0.5;exitDx=0;exitDy=0;entryX=0.647;entryY=0.013;entryDx=0;entryDy=0;entryPerimeter=0;endArrow=none;endFill=0;" edge="1" parent="6vAfJPUwhoTCvthWQYNs-1" source="JRzBo4cDENIiWSDkBh60-18" target="JRzBo4cDENIiWSDkBh60-14">
                    <mxGeometry relative="1" as="geometry"/>
                </mxCell>
                <mxCell id="JRzBo4cDENIiWSDkBh60-18" value="first_name" style="ellipse;whiteSpace=wrap;html=1;" vertex="1" parent="6vAfJPUwhoTCvthWQYNs-1">
                    <mxGeometry x="270" y="330" width="70" height="40" as="geometry"/>
                </mxCell>
                <mxCell id="JRzBo4cDENIiWSDkBh60-27" style="edgeStyle=none;html=1;exitX=0.5;exitY=0;exitDx=0;exitDy=0;entryX=0.66;entryY=1.067;entryDx=0;entryDy=0;entryPerimeter=0;endArrow=none;endFill=0;" edge="1" parent="6vAfJPUwhoTCvthWQYNs-1" source="JRzBo4cDENIiWSDkBh60-19" target="JRzBo4cDENIiWSDkBh60-14">
                    <mxGeometry relative="1" as="geometry"/>
                </mxCell>
                <mxCell id="JRzBo4cDENIiWSDkBh60-19" value="last_name" style="ellipse;whiteSpace=wrap;html=1;" vertex="1" parent="6vAfJPUwhoTCvthWQYNs-1">
                    <mxGeometry x="270" y="450" width="70" height="40" as="geometry"/>
                </mxCell>
                <mxCell id="JRzBo4cDENIiWSDkBh60-23" style="edgeStyle=none;html=1;exitX=1;exitY=0.5;exitDx=0;exitDy=0;entryX=0;entryY=0.5;entryDx=0;entryDy=0;endArrow=none;endFill=0;" edge="1" parent="6vAfJPUwhoTCvthWQYNs-1" source="JRzBo4cDENIiWSDkBh60-21" target="4FT97niEMeIXAbWIIyVj-2">
                    <mxGeometry relative="1" as="geometry"/>
                </mxCell>
                <mxCell id="JRzBo4cDENIiWSDkBh60-21" value="has" style="rhombus;whiteSpace=wrap;html=1;" vertex="1" parent="6vAfJPUwhoTCvthWQYNs-1">
                    <mxGeometry x="350" y="370" width="60" height="60" as="geometry"/>
                </mxCell>
            </root>
        </mxGraphModel>
    </diagram>
    <diagram id="e9yqIs1Kbdqo_zIPAoYl" name="UML_Diagram">
        <mxGraphModel dx="990" dy="566" grid="1" gridSize="10" guides="1" tooltips="1" connect="1" arrows="1" fold="1" page="1" pageScale="1" pageWidth="827" pageHeight="1169" math="0" shadow="0">
            <root>
                <mxCell id="TINhGAEGncP343CdF4Wg-0"/>
                <mxCell id="TINhGAEGncP343CdF4Wg-1" parent="TINhGAEGncP343CdF4Wg-0"/>
                <mxCell id="dmuRhuX_1VoCAG0fmPms-0" value="profile" style="swimlane;fontStyle=0;childLayout=stackLayout;horizontal=1;startSize=26;fillColor=none;horizontalStack=0;resizeParent=1;resizeParentMax=0;resizeLast=0;collapsible=1;marginBottom=0;" vertex="1" parent="TINhGAEGncP343CdF4Wg-1">
                    <mxGeometry x="70" y="70" width="140" height="156" as="geometry"/>
                </mxCell>
                <mxCell id="dmuRhuX_1VoCAG0fmPms-1" value="+ profile_id: int" style="text;strokeColor=none;fillColor=none;align=left;verticalAlign=top;spacingLeft=4;spacingRight=4;overflow=hidden;rotatable=0;points=[[0,0.5],[1,0.5]];portConstraint=eastwest;" vertex="1" parent="dmuRhuX_1VoCAG0fmPms-0">
                    <mxGeometry y="26" width="140" height="26" as="geometry"/>
                </mxCell>
                <mxCell id="dmuRhuX_1VoCAG0fmPms-2" value="+ password: varchar" style="text;strokeColor=none;fillColor=none;align=left;verticalAlign=top;spacingLeft=4;spacingRight=4;overflow=hidden;rotatable=0;points=[[0,0.5],[1,0.5]];portConstraint=eastwest;" vertex="1" parent="dmuRhuX_1VoCAG0fmPms-0">
                    <mxGeometry y="52" width="140" height="26" as="geometry"/>
                </mxCell>
                <mxCell id="dmuRhuX_1VoCAG0fmPms-3" value="+ email_address: varchar" style="text;strokeColor=none;fillColor=none;align=left;verticalAlign=top;spacingLeft=4;spacingRight=4;overflow=hidden;rotatable=0;points=[[0,0.5],[1,0.5]];portConstraint=eastwest;" vertex="1" parent="dmuRhuX_1VoCAG0fmPms-0">
                    <mxGeometry y="78" width="140" height="26" as="geometry"/>
                </mxCell>
                <mxCell id="jtGIoYFMTBL7n2-r9ASi-0" value="+ name: varchar" style="text;strokeColor=none;fillColor=none;align=left;verticalAlign=top;spacingLeft=4;spacingRight=4;overflow=hidden;rotatable=0;points=[[0,0.5],[1,0.5]];portConstraint=eastwest;" vertex="1" parent="dmuRhuX_1VoCAG0fmPms-0">
                    <mxGeometry y="104" width="140" height="26" as="geometry"/>
                </mxCell>
                <mxCell id="jtGIoYFMTBL7n2-r9ASi-3" value="+ nick: varchar" style="text;strokeColor=none;fillColor=none;align=left;verticalAlign=top;spacingLeft=4;spacingRight=4;overflow=hidden;rotatable=0;points=[[0,0.5],[1,0.5]];portConstraint=eastwest;" vertex="1" parent="dmuRhuX_1VoCAG0fmPms-0">
                    <mxGeometry y="130" width="140" height="26" as="geometry"/>
                </mxCell>
                <mxCell id="dmuRhuX_1VoCAG0fmPms-4" value="posts" style="swimlane;fontStyle=0;childLayout=stackLayout;horizontal=1;startSize=26;fillColor=none;horizontalStack=0;resizeParent=1;resizeParentMax=0;resizeLast=0;collapsible=1;marginBottom=0;" vertex="1" parent="TINhGAEGncP343CdF4Wg-1">
                    <mxGeometry x="290" y="70" width="140" height="130" as="geometry"/>
                </mxCell>
                <mxCell id="dmuRhuX_1VoCAG0fmPms-5" value="+ post_id: int" style="text;strokeColor=none;fillColor=none;align=left;verticalAlign=top;spacingLeft=4;spacingRight=4;overflow=hidden;rotatable=0;points=[[0,0.5],[1,0.5]];portConstraint=eastwest;" vertex="1" parent="dmuRhuX_1VoCAG0fmPms-4">
                    <mxGeometry y="26" width="140" height="26" as="geometry"/>
                </mxCell>
                <mxCell id="dmuRhuX_1VoCAG0fmPms-6" value="+ fk_profile_id: int" style="text;strokeColor=none;fillColor=none;align=left;verticalAlign=top;spacingLeft=4;spacingRight=4;overflow=hidden;rotatable=0;points=[[0,0.5],[1,0.5]];portConstraint=eastwest;" vertex="1" parent="dmuRhuX_1VoCAG0fmPms-4">
                    <mxGeometry y="52" width="140" height="26" as="geometry"/>
                </mxCell>
                <mxCell id="IEOS2tvB2U38y3Xu3GMJ-0" value="+ fk_comment_id: int" style="text;strokeColor=none;fillColor=none;align=left;verticalAlign=top;spacingLeft=4;spacingRight=4;overflow=hidden;rotatable=0;points=[[0,0.5],[1,0.5]];portConstraint=eastwest;" vertex="1" parent="dmuRhuX_1VoCAG0fmPms-4">
                    <mxGeometry y="78" width="140" height="26" as="geometry"/>
                </mxCell>
                <mxCell id="dmuRhuX_1VoCAG0fmPms-7" value="+ timestamp: timestamp" style="text;strokeColor=none;fillColor=none;align=left;verticalAlign=top;spacingLeft=4;spacingRight=4;overflow=hidden;rotatable=0;points=[[0,0.5],[1,0.5]];portConstraint=eastwest;" vertex="1" parent="dmuRhuX_1VoCAG0fmPms-4">
                    <mxGeometry y="104" width="140" height="26" as="geometry"/>
                </mxCell>
                <mxCell id="dmuRhuX_1VoCAG0fmPms-8" value="comment" style="swimlane;fontStyle=0;childLayout=stackLayout;horizontal=1;startSize=26;fillColor=none;horizontalStack=0;resizeParent=1;resizeParentMax=0;resizeLast=0;collapsible=1;marginBottom=0;" vertex="1" parent="TINhGAEGncP343CdF4Wg-1">
                    <mxGeometry x="490" y="70" width="170" height="104" as="geometry"/>
                </mxCell>
                <mxCell id="dmuRhuX_1VoCAG0fmPms-9" value="+ comment_id: int" style="text;strokeColor=none;fillColor=none;align=left;verticalAlign=top;spacingLeft=4;spacingRight=4;overflow=hidden;rotatable=0;points=[[0,0.5],[1,0.5]];portConstraint=eastwest;" vertex="1" parent="dmuRhuX_1VoCAG0fmPms-8">
                    <mxGeometry y="26" width="170" height="26" as="geometry"/>
                </mxCell>
                <mxCell id="dmuRhuX_1VoCAG0fmPms-10" value="+ text: varchar" style="text;strokeColor=none;fillColor=none;align=left;verticalAlign=top;spacingLeft=4;spacingRight=4;overflow=hidden;rotatable=0;points=[[0,0.5],[1,0.5]];portConstraint=eastwest;" vertex="1" parent="dmuRhuX_1VoCAG0fmPms-8">
                    <mxGeometry y="52" width="170" height="26" as="geometry"/>
                </mxCell>
                <mxCell id="dmuRhuX_1VoCAG0fmPms-11" value="+ publication_date: datetime" style="text;strokeColor=none;fillColor=none;align=left;verticalAlign=top;spacingLeft=4;spacingRight=4;overflow=hidden;rotatable=0;points=[[0,0.5],[1,0.5]];portConstraint=eastwest;" vertex="1" parent="dmuRhuX_1VoCAG0fmPms-8">
                    <mxGeometry y="78" width="170" height="26" as="geometry"/>
                </mxCell>
                <mxCell id="kUzAxuppWXcMDSPnQ1Pz-0" value="photo" style="swimlane;fontStyle=0;childLayout=stackLayout;horizontal=1;startSize=26;fillColor=none;horizontalStack=0;resizeParent=1;resizeParentMax=0;resizeLast=0;collapsible=1;marginBottom=0;" vertex="1" parent="TINhGAEGncP343CdF4Wg-1">
                    <mxGeometry x="70" y="240" width="140" height="130" as="geometry"/>
                </mxCell>
                <mxCell id="kUzAxuppWXcMDSPnQ1Pz-1" value="+ id: int" style="text;strokeColor=none;fillColor=none;align=left;verticalAlign=top;spacingLeft=4;spacingRight=4;overflow=hidden;rotatable=0;points=[[0,0.5],[1,0.5]];portConstraint=eastwest;" vertex="1" parent="kUzAxuppWXcMDSPnQ1Pz-0">
                    <mxGeometry y="26" width="140" height="26" as="geometry"/>
                </mxCell>
                <mxCell id="kUzAxuppWXcMDSPnQ1Pz-2" value="+ description: varchar" style="text;strokeColor=none;fillColor=none;align=left;verticalAlign=top;spacingLeft=4;spacingRight=4;overflow=hidden;rotatable=0;points=[[0,0.5],[1,0.5]];portConstraint=eastwest;" vertex="1" parent="kUzAxuppWXcMDSPnQ1Pz-0">
                    <mxGeometry y="52" width="140" height="26" as="geometry"/>
                </mxCell>
                <mxCell id="kUzAxuppWXcMDSPnQ1Pz-3" value="+ file_name: varchar" style="text;strokeColor=none;fillColor=none;align=left;verticalAlign=top;spacingLeft=4;spacingRight=4;overflow=hidden;rotatable=0;points=[[0,0.5],[1,0.5]];portConstraint=eastwest;" vertex="1" parent="kUzAxuppWXcMDSPnQ1Pz-0">
                    <mxGeometry y="78" width="140" height="26" as="geometry"/>
                </mxCell>
                <mxCell id="D5ok9TKNVCXf7PwKBAa5-0" value="+ profile_id: int" style="text;strokeColor=none;fillColor=none;align=left;verticalAlign=top;spacingLeft=4;spacingRight=4;overflow=hidden;rotatable=0;points=[[0,0.5],[1,0.5]];portConstraint=eastwest;" vertex="1" parent="kUzAxuppWXcMDSPnQ1Pz-0">
                    <mxGeometry y="104" width="140" height="26" as="geometry"/>
                </mxCell>
                <mxCell id="jtGIoYFMTBL7n2-r9ASi-1" style="edgeStyle=orthogonalEdgeStyle;html=1;exitX=1;exitY=0.5;exitDx=0;exitDy=0;entryX=0;entryY=0.5;entryDx=0;entryDy=0;endArrow=none;endFill=0;" edge="1" parent="TINhGAEGncP343CdF4Wg-1" source="dmuRhuX_1VoCAG0fmPms-1" target="dmuRhuX_1VoCAG0fmPms-6">
                    <mxGeometry relative="1" as="geometry"/>
                </mxCell>
                <mxCell id="jtGIoYFMTBL7n2-r9ASi-2" style="edgeStyle=orthogonalEdgeStyle;html=1;exitX=1;exitY=0.5;exitDx=0;exitDy=0;entryX=0;entryY=0.5;entryDx=0;entryDy=0;endArrow=none;endFill=0;" edge="1" parent="TINhGAEGncP343CdF4Wg-1" source="IEOS2tvB2U38y3Xu3GMJ-0" target="dmuRhuX_1VoCAG0fmPms-9">
                    <mxGeometry relative="1" as="geometry"/>
                </mxCell>
                <mxCell id="jtGIoYFMTBL7n2-r9ASi-4" style="edgeStyle=orthogonalEdgeStyle;html=1;exitX=0;exitY=0.5;exitDx=0;exitDy=0;entryX=0;entryY=0.5;entryDx=0;entryDy=0;endArrow=none;endFill=0;" edge="1" parent="TINhGAEGncP343CdF4Wg-1" source="dmuRhuX_1VoCAG0fmPms-1" target="D5ok9TKNVCXf7PwKBAa5-0">
                    <mxGeometry relative="1" as="geometry"/>
                </mxCell>
            </root>
        </mxGraphModel>
    </diagram>
    <diagram id="m0Xo0rPKgOdCztvno_OO" name="Third_Norm_Form">
        <mxGraphModel dx="990" dy="566" grid="1" gridSize="10" guides="1" tooltips="1" connect="1" arrows="1" fold="1" page="1" pageScale="1" pageWidth="827" pageHeight="1169" math="0" shadow="0">
            <root>
                <mxCell id="n8LmfLu6A5T_FxERx8Bh-0"/>
                <mxCell id="n8LmfLu6A5T_FxERx8Bh-1" parent="n8LmfLu6A5T_FxERx8Bh-0"/>
                <mxCell id="QtgxRr-7WlG_kVVVMQQ4-0" value="user" style="swimlane;fontStyle=0;childLayout=stackLayout;horizontal=1;startSize=26;fillColor=none;horizontalStack=0;resizeParent=1;resizeParentMax=0;resizeLast=0;collapsible=1;marginBottom=0;" vertex="1" parent="n8LmfLu6A5T_FxERx8Bh-1">
                    <mxGeometry x="70" y="300" width="140" height="176" as="geometry"/>
                </mxCell>
                <mxCell id="QtgxRr-7WlG_kVVVMQQ4-1" value="+ user_id: int" style="text;strokeColor=none;fillColor=none;align=left;verticalAlign=top;spacingLeft=4;spacingRight=4;overflow=hidden;rotatable=0;points=[[0,0.5],[1,0.5]];portConstraint=eastwest;" vertex="1" parent="QtgxRr-7WlG_kVVVMQQ4-0">
                    <mxGeometry y="26" width="140" height="26" as="geometry"/>
                </mxCell>
                <mxCell id="QtgxRr-7WlG_kVVVMQQ4-2" value="+ age: int" style="text;strokeColor=none;fillColor=none;align=left;verticalAlign=top;spacingLeft=4;spacingRight=4;overflow=hidden;rotatable=0;points=[[0,0.5],[1,0.5]];portConstraint=eastwest;" vertex="1" parent="QtgxRr-7WlG_kVVVMQQ4-0">
                    <mxGeometry y="52" width="140" height="26" as="geometry"/>
                </mxCell>
                <mxCell id="QtgxRr-7WlG_kVVVMQQ4-3" value="+ country: varchar&#10;&#10;" style="text;strokeColor=none;fillColor=none;align=left;verticalAlign=top;spacingLeft=4;spacingRight=4;overflow=hidden;rotatable=0;points=[[0,0.5],[1,0.5]];portConstraint=eastwest;" vertex="1" parent="QtgxRr-7WlG_kVVVMQQ4-0">
                    <mxGeometry y="78" width="140" height="26" as="geometry"/>
                </mxCell>
                <mxCell id="QtgxRr-7WlG_kVVVMQQ4-4" value="+ profession: varchar&#10;&#10;" style="text;strokeColor=none;fillColor=none;align=left;verticalAlign=top;spacingLeft=4;spacingRight=4;overflow=hidden;rotatable=0;points=[[0,0.5],[1,0.5]];portConstraint=eastwest;" vertex="1" parent="QtgxRr-7WlG_kVVVMQQ4-0">
                    <mxGeometry y="104" width="140" height="36" as="geometry"/>
                </mxCell>
                <mxCell id="3N6mdf1JN3CtB9UTsNI0-1" value="+ fk_profile_id: int&#10;&#10;" style="text;strokeColor=none;fillColor=none;align=left;verticalAlign=top;spacingLeft=4;spacingRight=4;overflow=hidden;rotatable=0;points=[[0,0.5],[1,0.5]];portConstraint=eastwest;" vertex="1" parent="QtgxRr-7WlG_kVVVMQQ4-0">
                    <mxGeometry y="140" width="140" height="36" as="geometry"/>
                </mxCell>
                <mxCell id="_VAbKsmkVxdP3pTMKh36-0" value="profile" style="swimlane;fontStyle=0;childLayout=stackLayout;horizontal=1;startSize=26;fillColor=none;horizontalStack=0;resizeParent=1;resizeParentMax=0;resizeLast=0;collapsible=1;marginBottom=0;" vertex="1" parent="n8LmfLu6A5T_FxERx8Bh-1">
                    <mxGeometry x="70" y="70" width="140" height="156" as="geometry"/>
                </mxCell>
                <mxCell id="_VAbKsmkVxdP3pTMKh36-1" value="+ profile_id: int" style="text;strokeColor=none;fillColor=none;align=left;verticalAlign=top;spacingLeft=4;spacingRight=4;overflow=hidden;rotatable=0;points=[[0,0.5],[1,0.5]];portConstraint=eastwest;" vertex="1" parent="_VAbKsmkVxdP3pTMKh36-0">
                    <mxGeometry y="26" width="140" height="26" as="geometry"/>
                </mxCell>
                <mxCell id="_VAbKsmkVxdP3pTMKh36-2" value="+ password: varchar" style="text;strokeColor=none;fillColor=none;align=left;verticalAlign=top;spacingLeft=4;spacingRight=4;overflow=hidden;rotatable=0;points=[[0,0.5],[1,0.5]];portConstraint=eastwest;" vertex="1" parent="_VAbKsmkVxdP3pTMKh36-0">
                    <mxGeometry y="52" width="140" height="26" as="geometry"/>
                </mxCell>
                <mxCell id="_VAbKsmkVxdP3pTMKh36-3" value="+ email_address: varchar" style="text;strokeColor=none;fillColor=none;align=left;verticalAlign=top;spacingLeft=4;spacingRight=4;overflow=hidden;rotatable=0;points=[[0,0.5],[1,0.5]];portConstraint=eastwest;" vertex="1" parent="_VAbKsmkVxdP3pTMKh36-0">
                    <mxGeometry y="78" width="140" height="26" as="geometry"/>
                </mxCell>
                <mxCell id="_VAbKsmkVxdP3pTMKh36-4" value="+ name: varchar" style="text;strokeColor=none;fillColor=none;align=left;verticalAlign=top;spacingLeft=4;spacingRight=4;overflow=hidden;rotatable=0;points=[[0,0.5],[1,0.5]];portConstraint=eastwest;" vertex="1" parent="_VAbKsmkVxdP3pTMKh36-0">
                    <mxGeometry y="104" width="140" height="26" as="geometry"/>
                </mxCell>
                <mxCell id="_VAbKsmkVxdP3pTMKh36-5" value="+ nick: varchar" style="text;strokeColor=none;fillColor=none;align=left;verticalAlign=top;spacingLeft=4;spacingRight=4;overflow=hidden;rotatable=0;points=[[0,0.5],[1,0.5]];portConstraint=eastwest;" vertex="1" parent="_VAbKsmkVxdP3pTMKh36-0">
                    <mxGeometry y="130" width="140" height="26" as="geometry"/>
                </mxCell>
                <mxCell id="1DyPKFi1tueDid9QOyyz-0" value="posts" style="swimlane;fontStyle=0;childLayout=stackLayout;horizontal=1;startSize=26;fillColor=none;horizontalStack=0;resizeParent=1;resizeParentMax=0;resizeLast=0;collapsible=1;marginBottom=0;" vertex="1" parent="n8LmfLu6A5T_FxERx8Bh-1">
                    <mxGeometry x="290" y="70" width="140" height="130" as="geometry"/>
                </mxCell>
                <mxCell id="1DyPKFi1tueDid9QOyyz-1" value="+ post_id: int" style="text;strokeColor=none;fillColor=none;align=left;verticalAlign=top;spacingLeft=4;spacingRight=4;overflow=hidden;rotatable=0;points=[[0,0.5],[1,0.5]];portConstraint=eastwest;" vertex="1" parent="1DyPKFi1tueDid9QOyyz-0">
                    <mxGeometry y="26" width="140" height="26" as="geometry"/>
                </mxCell>
                <mxCell id="1DyPKFi1tueDid9QOyyz-2" value="+ fk_profile_id: int" style="text;strokeColor=none;fillColor=none;align=left;verticalAlign=top;spacingLeft=4;spacingRight=4;overflow=hidden;rotatable=0;points=[[0,0.5],[1,0.5]];portConstraint=eastwest;" vertex="1" parent="1DyPKFi1tueDid9QOyyz-0">
                    <mxGeometry y="52" width="140" height="26" as="geometry"/>
                </mxCell>
                <mxCell id="1DyPKFi1tueDid9QOyyz-3" value="+ fk_comment_id: int" style="text;strokeColor=none;fillColor=none;align=left;verticalAlign=top;spacingLeft=4;spacingRight=4;overflow=hidden;rotatable=0;points=[[0,0.5],[1,0.5]];portConstraint=eastwest;" vertex="1" parent="1DyPKFi1tueDid9QOyyz-0">
                    <mxGeometry y="78" width="140" height="26" as="geometry"/>
                </mxCell>
                <mxCell id="1DyPKFi1tueDid9QOyyz-4" value="+ timestamp: timestamp" style="text;strokeColor=none;fillColor=none;align=left;verticalAlign=top;spacingLeft=4;spacingRight=4;overflow=hidden;rotatable=0;points=[[0,0.5],[1,0.5]];portConstraint=eastwest;" vertex="1" parent="1DyPKFi1tueDid9QOyyz-0">
                    <mxGeometry y="104" width="140" height="26" as="geometry"/>
                </mxCell>
                <mxCell id="ZHe9RXAVGAsU0zSGQ4ug-0" value="comment" style="swimlane;fontStyle=0;childLayout=stackLayout;horizontal=1;startSize=26;fillColor=none;horizontalStack=0;resizeParent=1;resizeParentMax=0;resizeLast=0;collapsible=1;marginBottom=0;" vertex="1" parent="n8LmfLu6A5T_FxERx8Bh-1">
                    <mxGeometry x="490" y="70" width="170" height="104" as="geometry"/>
                </mxCell>
                <mxCell id="ZHe9RXAVGAsU0zSGQ4ug-1" value="+ comment_id: int" style="text;strokeColor=none;fillColor=none;align=left;verticalAlign=top;spacingLeft=4;spacingRight=4;overflow=hidden;rotatable=0;points=[[0,0.5],[1,0.5]];portConstraint=eastwest;" vertex="1" parent="ZHe9RXAVGAsU0zSGQ4ug-0">
                    <mxGeometry y="26" width="170" height="26" as="geometry"/>
                </mxCell>
                <mxCell id="ZHe9RXAVGAsU0zSGQ4ug-2" value="+ text: varchar" style="text;strokeColor=none;fillColor=none;align=left;verticalAlign=top;spacingLeft=4;spacingRight=4;overflow=hidden;rotatable=0;points=[[0,0.5],[1,0.5]];portConstraint=eastwest;" vertex="1" parent="ZHe9RXAVGAsU0zSGQ4ug-0">
                    <mxGeometry y="52" width="170" height="26" as="geometry"/>
                </mxCell>
                <mxCell id="ZHe9RXAVGAsU0zSGQ4ug-3" value="+ publication_date: datetime" style="text;strokeColor=none;fillColor=none;align=left;verticalAlign=top;spacingLeft=4;spacingRight=4;overflow=hidden;rotatable=0;points=[[0,0.5],[1,0.5]];portConstraint=eastwest;" vertex="1" parent="ZHe9RXAVGAsU0zSGQ4ug-0">
                    <mxGeometry y="78" width="170" height="26" as="geometry"/>
                </mxCell>
                <mxCell id="lQwGQK2anPF61A2lhWA8-0" value="photo" style="swimlane;fontStyle=0;childLayout=stackLayout;horizontal=1;startSize=26;fillColor=none;horizontalStack=0;resizeParent=1;resizeParentMax=0;resizeLast=0;collapsible=1;marginBottom=0;" vertex="1" parent="n8LmfLu6A5T_FxERx8Bh-1">
                    <mxGeometry x="280" y="300" width="140" height="130" as="geometry"/>
                </mxCell>
                <mxCell id="lQwGQK2anPF61A2lhWA8-1" value="+ photo_id: int" style="text;strokeColor=none;fillColor=none;align=left;verticalAlign=top;spacingLeft=4;spacingRight=4;overflow=hidden;rotatable=0;points=[[0,0.5],[1,0.5]];portConstraint=eastwest;" vertex="1" parent="lQwGQK2anPF61A2lhWA8-0">
                    <mxGeometry y="26" width="140" height="26" as="geometry"/>
                </mxCell>
                <mxCell id="lQwGQK2anPF61A2lhWA8-2" value="+ description: varchar" style="text;strokeColor=none;fillColor=none;align=left;verticalAlign=top;spacingLeft=4;spacingRight=4;overflow=hidden;rotatable=0;points=[[0,0.5],[1,0.5]];portConstraint=eastwest;" vertex="1" parent="lQwGQK2anPF61A2lhWA8-0">
                    <mxGeometry y="52" width="140" height="26" as="geometry"/>
                </mxCell>
                <mxCell id="lQwGQK2anPF61A2lhWA8-3" value="+ file_name: varchar" style="text;strokeColor=none;fillColor=none;align=left;verticalAlign=top;spacingLeft=4;spacingRight=4;overflow=hidden;rotatable=0;points=[[0,0.5],[1,0.5]];portConstraint=eastwest;" vertex="1" parent="lQwGQK2anPF61A2lhWA8-0">
                    <mxGeometry y="78" width="140" height="26" as="geometry"/>
                </mxCell>
                <mxCell id="lQwGQK2anPF61A2lhWA8-4" value="+ fk_user_id: int" style="text;strokeColor=none;fillColor=none;align=left;verticalAlign=top;spacingLeft=4;spacingRight=4;overflow=hidden;rotatable=0;points=[[0,0.5],[1,0.5]];portConstraint=eastwest;" vertex="1" parent="lQwGQK2anPF61A2lhWA8-0">
                    <mxGeometry y="104" width="140" height="26" as="geometry"/>
                </mxCell>
                <mxCell id="qEUVa0tnB0X7LCCIbLK2-0" style="edgeStyle=orthogonalEdgeStyle;html=1;exitX=1;exitY=0.5;exitDx=0;exitDy=0;entryX=0;entryY=0.5;entryDx=0;entryDy=0;endArrow=none;endFill=0;" edge="1" parent="n8LmfLu6A5T_FxERx8Bh-1" source="_VAbKsmkVxdP3pTMKh36-1" target="1DyPKFi1tueDid9QOyyz-2">
                    <mxGeometry relative="1" as="geometry"/>
                </mxCell>
                <mxCell id="3N6mdf1JN3CtB9UTsNI0-0" style="edgeStyle=orthogonalEdgeStyle;html=1;exitX=1;exitY=0.5;exitDx=0;exitDy=0;entryX=0;entryY=0.5;entryDx=0;entryDy=0;endArrow=none;endFill=0;" edge="1" parent="n8LmfLu6A5T_FxERx8Bh-1" source="1DyPKFi1tueDid9QOyyz-3" target="ZHe9RXAVGAsU0zSGQ4ug-1">
                    <mxGeometry relative="1" as="geometry"/>
                </mxCell>
                <mxCell id="3N6mdf1JN3CtB9UTsNI0-2" style="edgeStyle=orthogonalEdgeStyle;html=1;exitX=0;exitY=0.5;exitDx=0;exitDy=0;endArrow=none;endFill=0;entryX=0;entryY=0.5;entryDx=0;entryDy=0;" edge="1" parent="n8LmfLu6A5T_FxERx8Bh-1" source="3N6mdf1JN3CtB9UTsNI0-1" target="_VAbKsmkVxdP3pTMKh36-1">
                    <mxGeometry relative="1" as="geometry">
                        <mxPoint x="50" y="110" as="targetPoint"/>
                    </mxGeometry>
                </mxCell>
                <mxCell id="3N6mdf1JN3CtB9UTsNI0-3" style="edgeStyle=orthogonalEdgeStyle;html=1;exitX=0;exitY=0.5;exitDx=0;exitDy=0;entryX=1;entryY=0.5;entryDx=0;entryDy=0;endArrow=none;endFill=0;" edge="1" parent="n8LmfLu6A5T_FxERx8Bh-1" source="lQwGQK2anPF61A2lhWA8-4" target="QtgxRr-7WlG_kVVVMQQ4-1">
                    <mxGeometry relative="1" as="geometry"/>
                </mxCell>
            </root>
        </mxGraphModel>
    </diagram>
</mxfile>